<?xml version="1.0" encoding="UTF-8" standalone="no"?>
<svg
   version="1.1"
   width="256"
   height="256"
   viewBox="0 0 256 256"
   xml:space="preserve"
   id="svg5"
   sodipodi:docname="walking-dkGray.svg"
   inkscape:version="1.3 (0e150ed6c4, 2023-07-21)"
   xmlns:inkscape="http://www.inkscape.org/namespaces/inkscape"
   xmlns:sodipodi="http://sodipodi.sourceforge.net/DTD/sodipodi-0.dtd"
   xmlns="http://www.w3.org/2000/svg"
   xmlns:svg="http://www.w3.org/2000/svg"><sodipodi:namedview
   id="namedview5"
   pagecolor="#ffffff"
   bordercolor="#000000"
   borderopacity="0.25"
   inkscape:showpageshadow="2"
   inkscape:pageopacity="0.0"
   inkscape:pagecheckerboard="0"
   inkscape:deskcolor="#d1d1d1"
   inkscape:zoom="3.2070312"
   inkscape:cx="128"
   inkscape:cy="128"
   inkscape:window-width="1920"
   inkscape:window-height="1017"
   inkscape:window-x="-8"
   inkscape:window-y="-8"
   inkscape:window-maximized="1"
   inkscape:current-layer="svg5" />&#10;&#10;<defs
   id="defs1">&#10;</defs>&#10;<g
   style="stroke:none;stroke-width:0;stroke-dasharray:none;stroke-linecap:butt;stroke-linejoin:miter;stroke-miterlimit:10;fill:#746f75;fill-rule:nonzero;opacity:1;fill-opacity:1"
   transform="translate(0 -2.842170943040401e-14) scale(2.81 2.81)"
   id="g1">&#10;	<path
   d="M 45 90 C 20.187 90 0 69.814 0 45 C 0 20.187 20.187 0 45 0 c 24.814 0 45 20.187 45 45 C 90 69.814 69.814 90 45 90 z M 45 5.625 C 23.289 5.625 5.625 23.289 5.625 45 c 0 21.712 17.664 39.375 39.375 39.375 c 21.712 0 39.375 -17.663 39.375 -39.375 C 84.375 23.289 66.712 5.625 45 5.625 z"
   style="stroke:none;stroke-width:1;stroke-dasharray:none;stroke-linecap:butt;stroke-linejoin:miter;stroke-miterlimit:10;fill:#746f75;fill-rule:nonzero;opacity:1;fill-opacity:1"
   transform=" matrix(1 0 0 1 0 0) "
   stroke-linecap="round"
   id="path1" />&#10;</g>&#10;<g
   style="stroke: none; stroke-width: 0; stroke-dasharray: none; stroke-linecap: butt; stroke-linejoin: miter; stroke-miterlimit: 10; fill: none; fill-rule: nonzero; opacity: 1;"
   transform="translate(46.17984832069338 46.17984832069335) scale(1.82 1.82)"
   id="g5">&#10;	<path
   d="M 55.044 90 c -1.217 0 -2.387 -0.415 -3.347 -1.198 c -1.127 -0.918 -1.815 -2.222 -1.939 -3.671 l -1.603 -20.142 c -0.065 -0.907 -0.497 -1.76 -1.184 -2.346 L 36.514 53.72 c -1.866 -1.592 -2.807 -3.996 -2.519 -6.431 l 1.762 -14.868 l -2.105 1.357 c -0.712 0.459 -1.179 1.204 -1.282 2.044 l -1.079 8.801 c -0.317 2.581 -2.677 4.432 -5.257 4.132 c -1.262 -0.147 -2.39 -0.779 -3.176 -1.779 c -0.785 -0.999 -1.133 -2.245 -0.978 -3.506 l 1.52 -12.399 c 0.246 -2.009 1.38 -3.762 3.112 -4.81 l 9.54 -5.771 c 1.987 -1.202 4.347 -1.678 6.643 -1.346 l 3.988 0.581 c 2.193 0.319 3.707 2.294 3.446 4.496 L 47.5 46.412 c -0.086 0.729 0.196 1.449 0.755 1.926 l 8.4 7.168 c 1.252 1.069 2.038 2.624 2.157 4.266 l 1.926 24.425 c 0.24 2.868 -1.815 5.384 -4.68 5.723 h -0.001 l -0.377 0.044 C 55.468 89.987 55.255 90 55.044 90 z M 55.942 88.925 h 0.01 H 55.942 z"
   style="stroke:none;stroke-width:1;stroke-dasharray:none;stroke-linecap:butt;stroke-linejoin:miter;stroke-miterlimit:10;fill:#746f75;fill-rule:nonzero;opacity:1;fill-opacity:1"
   transform=" matrix(1 0 0 1 0 0) "
   stroke-linecap="round"
   id="path2" />&#10;	<path
   d="M 63.423 46.153 c -0.051 0 -0.102 -0.001 -0.152 -0.002 c -1.27 -0.04 -2.448 -0.573 -3.316 -1.502 l -8.351 -8.941 c -0.208 -0.223 -0.304 -0.527 -0.259 -0.829 l 1.398 -9.463 c 0.056 -0.38 0.325 -0.694 0.691 -0.809 c 0.365 -0.115 0.768 -0.009 1.028 0.272 l 12.42 13.297 c 1.775 1.9 1.682 4.897 -0.209 6.683 C 65.786 45.697 64.637 46.153 63.423 46.153 z"
   style="stroke:none;stroke-width:1;stroke-dasharray:none;stroke-linecap:butt;stroke-linejoin:miter;stroke-miterlimit:10;fill:#746f75;fill-rule:nonzero;opacity:1;fill-opacity:1"
   transform=" matrix(1 0 0 1 0 0) "
   stroke-linecap="round"
   id="path3" />&#10;	<path
   d="M 47.295 17.771 c -4.899 0 -8.885 -3.986 -8.885 -8.886 S 42.396 0 47.295 0 s 8.886 3.986 8.886 8.886 S 52.195 17.771 47.295 17.771 z"
   style="stroke:none;stroke-width:1;stroke-dasharray:none;stroke-linecap:butt;stroke-linejoin:miter;stroke-miterlimit:10;fill:#746f75;fill-rule:nonzero;opacity:1;fill-opacity:1"
   transform=" matrix(1 0 0 1 0 0) "
   stroke-linecap="round"
   id="path4" />&#10;	<path
   d="M 32.461 90 c -0.341 0 -0.685 -0.033 -1.027 -0.1 c -2.832 -0.55 -4.727 -3.309 -4.225 -6.149 l 0 0 l 4.979 -28.135 c 0.062 -0.351 0.306 -0.642 0.64 -0.765 c 0.335 -0.122 0.708 -0.059 0.982 0.168 l 7.628 6.304 c 0.277 0.229 0.41 0.589 0.348 0.943 l -4.097 23.332 c -0.249 1.418 -1.039 2.647 -2.226 3.464 C 34.565 89.68 33.526 90 32.461 90 z"
   style="stroke:none;stroke-width:1;stroke-dasharray:none;stroke-linecap:butt;stroke-linejoin:miter;stroke-miterlimit:10;fill:#746f75;fill-rule:nonzero;opacity:1;fill-opacity:1"
   transform=" matrix(1 0 0 1 0 0) "
   stroke-linecap="round"
   id="path5" />&#10;</g>&#10;</svg>
